<svg id="Layer_1" data-name="Layer 1" xmlns="http://www.w3.org/2000/svg" viewBox="0 0 1125 1638"><title>no-image</title><rect width="1125" height="1638" fill="#fff"/><path d="M145.05,783.17h9.32L180,827.73l7.65,14.68h.44c-.46-7.15-1.15-15.14-1.15-22.56V783.17h8.57v70.88h-9.32l-25.65-44.6-7.66-14.64h-.43c.46,7.18,1.15,14.73,1.15,22.15v37.09h-8.57Z" fill="#4d4d4d"/><path d="M210.2,827.87c0-17.52,11.46-27.61,24.32-27.61s24.33,10.09,24.33,27.61-11.46,27.48-24.33,27.48S210.2,845.25,210.2,827.87Zm39.47,0c0-12-6.12-20.22-15.15-20.22s-15.14,8.19-15.14,20.22S225.5,848,234.52,848,249.67,839.9,249.67,827.87Z" fill="#4d4d4d"/><path d="M292.18,785c0-3.49,2.68-5.74,6.13-5.74s6.14,2.25,6.14,5.74-2.68,5.74-6.14,5.74S292.18,788.37,292.18,785Zm1.62,16.53h8.89v52.5H293.8Z" fill="#4d4d4d"/><path d="M320.37,801.55h7.34l.75,7.61h.29c4.6-5,10.09-8.9,16.34-8.9,8,0,12.33,3.84,14.49,10,5.46-5.9,10.93-10,17.32-10,10.79,0,16,7.14,16,20.53v33.26H384V821.93c0-9.77-3.1-14-9.77-14-4.07,0-8.3,2.66-13.16,8.06v38h-8.88V821.93c0-9.77-3.1-14-9.77-14-3.94,0-8.3,2.66-13.16,8.06v38h-8.88Z" fill="#4d4d4d"/><path d="M406.65,840.42c0-11.44,9.87-17.15,32.24-19.59,0-6.75-2.26-13.26-10.84-13.26-6.07,0-11.54,2.88-15.65,5.63l-3.48-6.09c4.83-3.17,12.2-6.85,20.62-6.85,12.81,0,18.23,8.51,18.23,21.58v32.21h-7.33l-.75-6.27h-.3c-5,4.16-10.85,7.57-17.36,7.57C413.24,855.35,406.65,849.89,406.65,840.42Zm32.24.82V826.66c-17.59,2.12-23.54,6.43-23.54,13.14,0,6,4,8.39,9.2,8.39S433.81,845.72,438.89,841.24Z" fill="#4d4d4d"/><path d="M460.35,864.14c0-4.5,2.87-8.74,7.7-11.87v-.44a9.71,9.71,0,0,1-4.7-8.6c0-4.36,3.06-7.83,5.78-9.74v-.44a18.24,18.24,0,0,1-6.8-14.09c0-11.48,9.05-18.7,19.7-18.7a21.51,21.51,0,0,1,7.41,1.29h18.31v6.84H497a15.15,15.15,0,0,1,4.28,10.81c0,11.24-8.49,18.2-19.22,18.2a18.68,18.68,0,0,1-7.82-1.78c-1.9,1.58-3.35,3.32-3.35,6.2,0,3.33,2.16,5.7,9.2,5.7h10.22c12.2,0,18.34,3.83,18.34,12.54,0,9.75-10.32,18.15-26.54,18.15C469.22,878.21,460.35,873.17,460.35,864.14Zm39.57-2.75c0-4.86-3.69-6.52-10.59-6.52h-9.05a29.79,29.79,0,0,1-6.82-.79c-3.76,2.67-5.36,5.79-5.36,8.81,0,5.64,5.68,9.2,15.23,9.2C493.33,872.09,499.92,866.87,499.92,861.39ZM493.19,819c0-7.63-5-12.26-11.16-12.26s-11.16,4.56-11.16,12.26S476,831.43,482,831.43,493.19,826.6,493.19,819Z" fill="#4d4d4d"/><path d="M513.35,827.87c0-17.09,11.52-27.61,23.6-27.61,13.39,0,20.95,9.61,20.95,24.63a28.76,28.76,0,0,1-.41,5.05H522.13c.64,11.12,7.44,18.33,17.45,18.33a23,23,0,0,0,13.06-4.2l3.18,5.83a30.85,30.85,0,0,1-17.34,5.45C524.49,855.35,513.35,845.12,513.35,827.87Zm36.7-4.3c0-10.52-4.73-16.24-12.94-16.24-7.38,0-14,5.93-15.06,16.24Z" fill="#4d4d4d"/><path d="M589.16,840.42c0-11.44,9.87-17.15,32.25-19.59,0-6.75-2.26-13.26-10.84-13.26-6.07,0-11.54,2.88-15.65,5.63l-3.48-6.09c4.83-3.17,12.19-6.85,20.62-6.85,12.81,0,18.23,8.51,18.23,21.58v32.21H623l-.75-6.27h-.29c-5,4.16-10.85,7.57-17.36,7.57C595.76,855.35,589.16,849.89,589.16,840.42Zm32.25.82V826.66c-17.6,2.12-23.54,6.43-23.54,13.14,0,6,4,8.39,9.2,8.39S616.32,845.72,621.41,841.24Z" fill="#4d4d4d"/><path d="M639.29,801.55h9.15l9.93,29.83c1.57,5.12,3.28,10.47,4.84,15.48h.44c1.56-5,3.27-10.36,4.84-15.48l9.93-29.83h8.7l-18.57,52.5H658.23Z" fill="#4d4d4d"/><path d="M691.87,840.42c0-11.44,9.87-17.15,32.25-19.59,0-6.75-2.27-13.26-10.84-13.26-6.07,0-11.54,2.88-15.66,5.63l-3.47-6.09c4.83-3.17,12.19-6.85,20.62-6.85,12.81,0,18.23,8.51,18.23,21.58v32.21h-7.34l-.75-6.27h-.29c-5,4.16-10.85,7.57-17.37,7.57C698.47,855.35,691.87,849.89,691.87,840.42Zm32.25.82V826.66c-17.6,2.12-23.54,6.43-23.54,13.14,0,6,4,8.39,9.2,8.39S719,845.72,724.12,841.24Z" fill="#4d4d4d"/><path d="M747.93,785c0-3.49,2.68-5.74,6.14-5.74s6.13,2.25,6.13,5.74-2.68,5.74-6.13,5.74S747.93,788.37,747.93,785Zm1.63,16.53h8.88v52.5h-8.88Z" fill="#4d4d4d"/><path d="M776.12,843.51v-66.4H785v67c0,2.71,1.18,3.79,2.48,3.79a7.85,7.85,0,0,0,1.94-.21l1.2,6.78a14.33,14.33,0,0,1-5.11.83C778.86,855.35,776.12,851.1,776.12,843.51Z" fill="#4d4d4d"/><path d="M800.41,840.42c0-11.44,9.87-17.15,32.24-19.59,0-6.75-2.26-13.26-10.83-13.26-6.07,0-11.54,2.88-15.66,5.63l-3.48-6.09c4.83-3.17,12.2-6.85,20.62-6.85,12.82,0,18.24,8.51,18.24,21.58v32.21H834.2l-.75-6.27h-.3c-5,4.16-10.84,7.57-17.36,7.57C807,855.35,800.41,849.89,800.41,840.42Zm32.24.82V826.66c-17.59,2.12-23.54,6.43-23.54,13.14,0,6,4,8.39,9.2,8.39S827.57,845.72,832.65,841.24Z" fill="#4d4d4d"/><path d="M866.32,848.63H866l-.83,5.42h-7.1V777.11H867v21l-.3,9.42c4.81-4.14,10.65-7.31,16.49-7.31,13.57,0,20.86,10.52,20.86,26.71,0,17.93-10.74,28.38-22.74,28.38C876.4,855.35,871,852.84,866.32,848.63Zm28.53-21.54c0-11.59-4-19.36-13.84-19.36-4.44,0-9.06,2.45-14,7.17v27.51c4.62,4,9.31,5.46,12.78,5.46C888.45,847.87,894.85,840.05,894.85,827.09Z" fill="#4d4d4d"/><path d="M917.39,843.51v-66.4h8.88v67c0,2.71,1.18,3.79,2.48,3.79a7.85,7.85,0,0,0,1.94-.21l1.21,6.78a14.44,14.44,0,0,1-5.12.83C920.13,855.35,917.39,851.1,917.39,843.51Z" fill="#4d4d4d"/><path d="M941,827.87c0-17.09,11.51-27.61,23.6-27.61,13.39,0,21,9.61,21,24.63a27.73,27.73,0,0,1-.42,5.05H949.81c.63,11.12,7.43,18.33,17.44,18.33a22.91,22.91,0,0,0,13.06-4.2l3.19,5.83a30.9,30.9,0,0,1-17.34,5.45C952.17,855.35,941,845.12,941,827.87Zm36.69-4.3c0-10.52-4.73-16.24-12.94-16.24-7.38,0-14,5.93-15,16.24Z" fill="#4d4d4d"/></svg>